<svg width="665" height="533" viewBox="0 0 665 533" fill="none" xmlns="http://www.w3.org/2000/svg">
<path opacity="0.48" d="M649.388 19.7384H73.7473C65.6753 19.7384 59.1317 26.1634 59.1317 34.0892V385.804C59.1317 393.73 65.6753 400.155 73.7473 400.155H649.388C657.46 400.155 664.004 393.73 664.004 385.804V34.0892C664.004 26.1634 657.46 19.7384 649.388 19.7384Z" fill="#182488"/>
<path opacity="0.18" d="M652.359 427.747C651.918 440.226 649.01 452.93 641.903 463.274C632.949 476.299 618.408 484.361 604.324 491.942L564.394 513.544C546.895 523.019 528.449 532.72 508.5 532.993C494.384 533.202 480.725 528.625 467.148 524.786C403.739 506.798 336.948 504.277 271.399 508.822C237.823 511.151 204.411 515.246 171.147 520.177C144.531 524.063 112.59 536.992 88.5891 521.686C62.4478 504.983 46.4035 477.937 31.6337 451.678C18.7754 428.888 5.73746 405.535 1.48949 379.822C-5.04583 340.088 10.6063 299.278 35.0974 266.996C42.4628 257.355 50.5045 248.231 59.1638 239.692V385.572C59.1637 389.392 60.7017 393.056 63.4417 395.764C66.1817 398.473 69.9008 400.005 73.7865 400.026H649.696C651.746 409.123 652.64 418.434 652.359 427.747V427.747Z" fill="#182488"/>
<path opacity="0.18" d="M436.965 19.754H283.052C288.845 15.4291 295.137 11.7908 301.799 8.91469C313.965 3.7035 327.225 1.37851 340.453 0.448515C373.734 -1.90854 407.113 5.30694 436.965 19.754Z" fill="#182488"/>
<path d="M296.133 352.276C297.633 354.228 299.434 355.938 301.473 357.343C304.503 358.948 307.839 359.92 311.271 360.197L363.397 367.91C363.915 367.945 364.416 368.11 364.85 368.391C365.139 368.699 365.358 369.065 365.49 369.463C365.623 369.861 365.666 370.283 365.618 370.7C365.86 380.282 364.542 389.842 361.715 399.016C361.566 399.767 361.197 400.458 360.653 401.005C359.95 401.472 359.118 401.718 358.269 401.71C340.73 403.169 323.11 402.704 305.522 402.239C302.565 402.28 299.615 401.962 296.737 401.293C291.838 399.946 287.837 396.659 284.146 393.276C276.226 386.045 244.17 356.974 242.226 353.03C239.649 347.379 237.573 341.521 236.021 335.52C234.388 329.748 246.325 329.026 246.08 323.029C245.908 318.883 246.415 314.736 247.583 310.747C248.452 307.189 250.253 303.917 252.808 301.255C254.605 299.651 251.829 288.78 254.311 288.652C257.185 298.272 270.184 317.513 275.834 325.755C282.114 334.944 288.89 343.797 296.133 352.276V352.276Z" fill="#182488"/>
<path d="M296.133 352.276C297.633 354.228 299.434 355.938 301.473 357.343C304.503 358.948 307.839 359.92 311.271 360.197L363.397 367.91C363.915 367.945 364.416 368.11 364.85 368.391C365.139 368.699 365.358 369.065 365.49 369.463C365.623 369.861 365.666 370.283 365.618 370.7C365.86 380.282 364.542 389.842 361.715 399.016C361.566 399.767 361.197 400.458 360.653 401.005C359.95 401.472 359.118 401.718 358.269 401.71C340.73 403.169 323.11 402.704 305.522 402.239C302.565 402.28 299.615 401.962 296.737 401.293C291.838 399.946 287.837 396.659 284.146 393.276C276.226 386.045 244.17 356.974 242.226 353.03C239.649 347.379 237.573 341.521 236.021 335.52C234.388 329.748 246.325 329.026 246.08 323.029C245.908 318.883 246.415 314.736 247.583 310.747C248.452 307.189 250.253 303.917 252.808 301.255C254.605 299.651 251.829 288.78 254.311 288.652C257.185 298.272 270.184 317.513 275.834 325.755C282.114 334.944 288.89 343.797 296.133 352.276V352.276Z" fill="url(#paint0_linear)"/>
<path d="M164.233 271.046C160.723 274.118 157.448 277.441 154.435 280.987C147.217 289.694 142.416 300.052 137.941 310.378C126.037 337.861 115.667 367.252 118.753 396.964C118.812 398.752 119.305 400.5 120.191 402.063C121.596 403.832 123.57 405.081 125.792 405.607C131.524 407.402 137.648 407.483 143.755 407.531C167.287 407.739 190.851 407.948 214.367 406.825C218.009 406.649 221.863 406.376 224.884 404.356C227.09 402.697 228.851 400.534 230.011 398.054C236.331 386.381 238.176 372.88 243.076 360.598C249.608 344.564 267.571 329.988 263.782 313.088C247.583 241.334 171.647 264.424 164.233 271.046Z" fill="#182488"/>
<path d="M164.233 271.046C160.723 274.118 157.448 277.441 154.435 280.987C147.217 289.694 142.416 300.052 137.941 310.378C126.037 337.861 115.667 367.252 118.753 396.964C118.812 398.752 119.305 400.5 120.191 402.063C121.596 403.832 123.57 405.081 125.792 405.607C131.524 407.402 137.648 407.483 143.755 407.531C167.287 407.739 190.851 407.948 214.367 406.825C218.009 406.649 221.863 406.376 224.884 404.356C227.09 402.697 228.851 400.534 230.011 398.054C236.331 386.381 238.176 372.88 243.076 360.598C249.608 344.564 267.571 329.988 263.782 313.088C247.583 241.334 171.647 264.424 164.233 271.046Z" fill="url(#paint1_linear)"/>
<path d="M270.576 211.606C267.816 224.77 264.926 238.287 257.512 249.624C254.809 254.201 250.899 257.979 246.195 260.559C241.41 262.916 235.335 263.237 230.861 260.351C228.623 258.924 226.174 256.679 223.741 257.737C221.977 258.523 221.405 260.672 221.161 262.548C220.548 267.156 220.614 271.827 221.356 276.417C221.659 277.71 221.737 279.044 221.585 280.362C221.269 281.582 220.599 282.685 219.657 283.539C218.715 284.393 217.541 284.96 216.278 285.172C213.751 285.534 211.173 285.137 208.88 284.034C205.314 282.468 202.193 280.067 199.79 277.043C197.388 274.018 195.776 270.462 195.097 266.684C194.755 264.133 194.591 261.561 194.608 258.988C194.297 247.571 192.452 236.203 192.828 224.803C193.203 213.402 196.094 201.537 203.981 193.119C208.536 188.535 213.947 184.855 219.919 182.279C228.819 178.11 238.748 175.176 248.481 176.699C252.354 177.3 256.049 178.718 259.31 180.854C262.572 182.991 265.323 185.797 267.375 189.078C272.47 196.758 272.486 202.483 270.576 211.606Z" fill="#FFDAD2"/>
<path d="M294.892 180.996C295.555 175.646 294.543 170.224 291.99 165.452C289.438 160.68 285.466 156.784 280.603 154.283C276.275 152.167 271.458 151.269 266.787 150.05C255.846 147.164 245.346 142.386 234.127 141.359C222.908 140.333 210.007 144.197 205.01 154.187C204.095 156.015 203.197 158.228 201.189 158.709C200.091 158.825 198.981 158.727 197.923 158.42C190.427 157.121 183.683 163.407 180.302 170.093C174.848 180.916 174.57 193.535 175.762 205.545C176.857 216.657 179.747 228.667 188.827 235.433C189.725 236.107 191.048 236.716 191.913 235.995C192.309 235.588 192.556 235.063 192.615 234.503C193.528 230.29 193.869 225.977 193.628 221.676C193.448 218.469 192.926 215.07 193.775 211.911C194.624 208.752 197.351 205.754 200.682 205.85C203.769 205.85 206.251 208.672 207.019 211.622C207.565 214.626 207.448 217.71 206.676 220.666C207.165 221.868 208.88 220.425 209.174 219.174C211.428 209.105 211.934 197.833 219.054 190.312C220.502 191.784 221.557 193.586 222.124 195.556C223.188 194.473 224.542 193.707 226.029 193.344C227.516 192.981 229.077 193.036 230.534 193.503C232.6 194.386 234.5 195.606 236.152 197.111C253.494 210.404 291.25 206.459 294.892 180.996Z" fill="#3F3D56"/>
<path d="M169.23 287.465C163.743 291.377 161.065 298.256 160.902 304.894C160.738 311.533 167.891 353.655 174.636 365.617C179.861 374.917 190.753 399.193 207.296 405.895C212.195 407.883 284.62 407.05 318.227 403.474C318.015 395.665 317.623 387.856 317.101 380.048C317.15 379.018 316.832 378.003 316.202 377.178C315.353 376.312 314.145 370.652 312.936 370.652C293.34 370.732 273.58 376.616 253.984 377.065C251.138 377.246 248.28 377.079 245.476 376.568C243.181 376.006 240.981 375.12 238.944 373.939C223.822 365.537 215.461 349.037 209.55 332.987C205.026 320.608 201.384 307.797 194.852 296.236C192.533 292.115 190.46 288.106 185.887 286.294C180.514 284.162 174.211 283.921 169.23 287.465Z" fill="#182488"/>
<path d="M169.23 287.465C163.743 291.377 161.065 298.256 160.902 304.894C160.738 311.533 167.891 353.655 174.636 365.617C179.861 374.917 190.753 399.193 207.296 405.895C212.195 407.883 284.62 407.05 318.227 403.474C318.015 395.665 317.623 387.856 317.101 380.048C317.15 379.018 316.832 378.003 316.202 377.178C315.353 376.312 314.145 370.652 312.936 370.652C293.34 370.732 273.58 376.616 253.984 377.065C251.138 377.246 248.28 377.079 245.476 376.568C243.181 376.006 240.981 375.12 238.944 373.939C223.822 365.537 215.461 349.037 209.55 332.987C205.026 320.608 201.384 307.797 194.852 296.236C192.533 292.115 190.46 288.106 185.887 286.294C180.514 284.162 174.211 283.921 169.23 287.465Z" fill="url(#paint2_linear)"/>
<path d="M315.353 369.144C325.527 368.198 336.827 370.427 343.278 378.204C343.957 378.913 344.401 379.807 344.552 380.769C344.545 381.635 344.272 382.479 343.768 383.19C339.963 389.396 331.7 390.871 324.759 393.324C321.149 394.594 317.702 396.273 314.488 398.327C312.679 399.736 310.586 400.753 308.348 401.309C303.448 402.031 299.382 397.734 297.161 393.436C294.614 388.626 290.629 378.749 295.528 374.195C299.529 370.587 310.323 369.593 315.353 369.144Z" fill="#FFDAD2"/>
<path d="M399.601 366.675C401.412 367.686 402.969 369.083 404.157 370.764C404.737 371.614 405.081 372.598 405.156 373.619C405.23 374.639 405.032 375.662 404.582 376.584C403.811 377.721 402.761 378.647 401.528 379.278C392.497 384.553 381.425 385.499 372.28 390.502C370.405 391.841 368.253 392.76 365.977 393.196C364.639 393.225 363.313 392.951 362.101 392.394C360.889 391.838 359.823 391.015 358.988 389.989C357.322 387.947 356.044 385.628 355.215 383.142C344.519 355.563 384.218 357.054 399.601 366.675Z" fill="#FFDAD2"/>
<path d="M140.816 354.361H183.127V388.482C183.127 391.671 181.837 394.73 179.54 396.985C177.243 399.241 174.128 400.508 170.88 400.508H153.063C149.815 400.508 146.7 399.241 144.403 396.985C142.106 394.73 140.816 391.671 140.816 388.482V354.361Z" fill="white"/>
<path d="M180.27 362.634H193.089C195.796 362.634 198.392 363.69 200.306 365.57C202.22 367.449 203.295 369.998 203.295 372.656V376.809C203.295 379.467 202.22 382.016 200.306 383.895C198.392 385.774 195.796 386.83 193.089 386.83H180.27V362.634Z" stroke="white" stroke-width="3.3" stroke-miterlimit="10"/>
<path d="M655.92 399.77H82.7616C77.7471 399.77 73.682 403.758 73.682 408.677C73.682 413.596 77.7471 417.584 82.7616 417.584H655.92C660.935 417.584 665 413.596 665 408.677C665 403.758 660.935 399.77 655.92 399.77Z" fill="#182488"/>
<path d="M550.558 417.857H226.582V528.19H550.558V417.857Z" fill="#182488"/>
<path d="M228.787 417.857H101.525V528.19H228.787V417.857Z" fill="#182488"/>
<path d="M550.574 417.857H228.721V528.19H550.574V417.857Z" fill="#FF7648" fill-opacity="0.97"/>
<path d="M228.787 417.857H101.525V528.19H228.787V417.857Z" fill="#FFC278"/>
<path opacity="0.18" d="M663.987 34.1052V104.336H59.1317V34.1052C59.1317 30.2917 60.6689 26.6332 63.4075 23.9292C66.1462 21.2252 69.8635 19.6954 73.7473 19.6742H649.372C653.256 19.6954 656.973 21.2252 659.712 23.9292C662.45 26.6332 663.987 30.2917 663.987 34.1052Z" fill="#182488"/>
<path d="M320.203 399.465H529.949C535.829 399.465 540.596 394.785 540.596 389.011C540.596 383.237 535.829 378.556 529.949 378.556H320.203C314.323 378.556 309.556 383.237 309.556 389.011C309.556 394.785 314.323 399.465 320.203 399.465Z" fill="#182488"/>
<path d="M320.203 399.465H529.949C535.829 399.465 540.596 394.785 540.596 389.011C540.596 383.237 535.829 378.556 529.949 378.556H320.203C314.323 378.556 309.556 383.237 309.556 389.011C309.556 394.785 314.323 399.465 320.203 399.465Z" fill="url(#paint3_linear)"/>
<path d="M392.938 399.497H553.905L596.364 293.783C596.927 292.374 597.132 290.851 596.96 289.347C596.789 287.843 596.245 286.402 595.378 285.151C594.511 283.9 593.345 282.875 591.983 282.166C590.621 281.457 589.104 281.086 587.562 281.083H461.248C455.137 281.094 449.171 282.907 444.123 286.286C439.074 289.666 435.175 294.456 432.931 300.036L392.938 399.497Z" fill="#182488"/>
<path d="M401.12 399.61H554.003L594.323 299.186C594.861 297.848 595.057 296.401 594.895 294.972C594.733 293.542 594.217 292.173 593.393 290.984C592.568 289.795 591.46 288.822 590.165 288.15C588.87 287.478 587.427 287.127 585.962 287.128H466C460.188 287.126 454.511 288.84 449.705 292.049C444.9 295.257 441.189 299.811 439.055 305.119L401.12 399.61Z" fill="#182488"/>
<path d="M401.12 399.61H554.003L594.323 299.186C594.861 297.848 595.057 296.401 594.895 294.972C594.733 293.542 594.217 292.173 593.393 290.984C592.568 289.795 591.46 288.822 590.165 288.15C588.87 287.478 587.427 287.127 585.962 287.128H466C460.188 287.126 454.511 288.84 449.705 292.049C444.9 295.257 441.189 299.811 439.055 305.119L401.12 399.61Z" fill="url(#paint4_linear)"/>
<path opacity="0.51" d="M574.204 247.908H347.867V260.415H574.204V247.908Z" fill="white"/>
<path d="M508.769 226.502H347.867V239.009H508.769V226.502Z" fill="white"/>
<path d="M638.48 226.502H530.765V239.009H638.48V226.502Z" fill="white"/>
<path d="M638.104 147.324H472.499V158.436H638.104V147.324Z" fill="white"/>
<path opacity="0.51" d="M614.98 167.063H437.814V178.174H614.98V167.063Z" fill="white"/>
<path d="M459.859 147.324H350.937V158.436H459.859V147.324Z" fill="white"/>
<path d="M638.104 186.208H398.719V197.32H638.104V186.208Z" fill="white"/>
<path opacity="0.51" d="M386.079 187.811H350.937V198.923H386.079V187.811Z" fill="white"/>
<path opacity="0.51" d="M638.104 205.946H480.093V217.058H638.104V205.946Z" fill="white"/>
<path d="M459.859 205.946H350.937V217.058H459.859V205.946Z" fill="white"/>
<path d="M420.977 166.598H350.937V177.709H420.977V166.598Z" fill="white"/>
<path d="M577.535 109.916H411.93V121.028H577.535V109.916Z" fill="white"/>
<path opacity="0.51" d="M554.412 129.654H377.245V140.766H554.412V129.654Z" fill="white"/>
<path d="M399.307 109.916H290.384V121.028H399.307V109.916Z" fill="white"/>
<path d="M576.065 86.9065H410.461V98.0184H576.065V86.9065Z" fill="#8F98FF"/>
<path d="M397.837 66.0297H288.915V77.1416H397.837V66.0297Z" fill="#FF7648"/>
<path d="M397.837 46.9808H288.915V58.0927H397.837V46.9808Z" fill="white"/>
<path d="M360.425 129.189H290.384V140.301H360.425V129.189Z" fill="white"/>
<defs>
<linearGradient id="paint0_linear" x1="244.219" y1="333.275" x2="325.892" y2="364.975" gradientUnits="userSpaceOnUse">
<stop offset="0.01"/>
<stop offset="0.12" stop-opacity="0.75"/>
<stop offset="1" stop-opacity="0"/>
</linearGradient>
<linearGradient id="paint1_linear" x1="18953.2" y1="40422.9" x2="16743.6" y2="27040.2" gradientUnits="userSpaceOnUse">
<stop offset="0.01"/>
<stop offset="0.12" stop-opacity="0.75"/>
<stop offset="1" stop-opacity="0"/>
</linearGradient>
<linearGradient id="paint2_linear" x1="21299.5" y1="33397" x2="23851.2" y2="26004.9" gradientUnits="userSpaceOnUse">
<stop offset="0.01"/>
<stop offset="0.12" stop-opacity="0.75"/>
<stop offset="1" stop-opacity="0"/>
</linearGradient>
<linearGradient id="paint3_linear" x1="61516.7" y1="5983.4" x2="61517.9" y2="5413.99" gradientUnits="userSpaceOnUse">
<stop offset="0.01"/>
<stop offset="0.12" stop-opacity="0.75"/>
<stop offset="1" stop-opacity="0"/>
</linearGradient>
<linearGradient id="paint4_linear" x1="60040.9" y1="32329.7" x2="60304.9" y2="20812.1" gradientUnits="userSpaceOnUse">
<stop offset="0.01"/>
<stop offset="0.12" stop-opacity="0.75"/>
<stop offset="1" stop-opacity="0"/>
</linearGradient>
</defs>
</svg>
