<svg width="60" height="60" viewBox="0 0 60 60" fill="none" xmlns="http://www.w3.org/2000/svg">
<rect x="0.5" y="0.5" width="59" height="59" fill="white"/>
<path d="M57.3528 2.56027C55.6641 0.909119 53.4412 0 51.0938 0H8.78906C3.94272 0 0 3.94272 0 8.78906V51.2109C0 56.0573 3.94272 60 8.78906 60H51.2109C56.0573 60 60 56.0573 60 51.2109V8.78906C60 6.44073 59.0598 4.22882 57.3528 2.56027ZM31.7578 31.7578H28.2422V28.2422H31.7578C32.7287 28.2422 33.5156 27.4553 33.5156 26.4844C33.5156 21.6632 33.5152 19.4582 33.5152 18.4438C33.5147 16.5765 33.5175 14.5427 35.3412 12.9822C36.7314 11.7929 38.5034 11.0747 40.9186 10.7213C43.4665 10.3491 46.0524 10.4654 48.7834 11.0783C48.576 12.4741 48.3302 14.1275 48.1448 15.3735C47.1085 15.1634 45.33 14.9936 43.8744 15.2403C40.6425 15.7869 38.7891 17.7924 38.7891 20.7422V26.4844C38.7891 27.4553 39.576 28.2422 40.5469 28.2422H47.0847L46.2057 31.7578H40.5469C39.576 31.7578 38.7891 32.5447 38.7891 33.5156V56.4844H33.5156V33.5156C33.5156 32.5447 32.7287 31.7578 31.7578 31.7578ZM56.4844 51.2109C56.4844 54.1187 54.1187 56.4844 51.2109 56.4844H42.3047V35.2734H47.5781C48.3847 35.2734 49.0878 34.7246 49.2833 33.9418L51.0411 26.9106C51.1725 26.3855 51.0544 25.8293 50.7216 25.4027C50.3883 24.976 49.877 24.7266 49.3359 24.7266H42.3047V20.7422C42.3047 19.9338 42.4713 19.043 44.4617 18.7061C46.019 18.4424 47.4106 18.7903 48.6383 19.0979C49.2284 19.2453 49.8633 19.4701 50.587 18.9803C50.9944 18.7042 51.2677 18.2703 51.3405 17.7837C51.3405 17.7837 52.1301 12.4786 52.494 10.0259C52.6236 9.15253 52.0857 8.31848 51.2361 8.07678C47.8029 7.10037 43.6034 6.77948 40.4333 7.24274C37.3325 7.69638 34.9722 8.67096 33.0556 10.3111C30.3891 12.5926 30.0581 15.52 30.0238 17.5163C30.0229 17.5571 30.0233 21.1079 30.0233 24.7266H26.4844C25.5135 24.7266 24.7266 25.5135 24.7266 26.4844V33.5156C24.7266 34.4865 25.5135 35.2734 26.4844 35.2734H30V56.4844H8.78906C5.88135 56.4844 3.51562 54.1187 3.51562 51.2109V8.78906C3.51562 5.88135 5.88135 3.51562 8.78906 3.51562H51.0938C54.0157 3.51562 56.4844 5.93079 56.4844 8.78906V51.2109Z" fill="#182488"/>
<rect x="0.5" y="0.5" width="59" height="59" stroke="white"/>
</svg>
