<svg width="60" height="60" viewBox="0 0 60 60" fill="none" xmlns="http://www.w3.org/2000/svg">
<mask id="path-1-inside-1" fill="white">
<path d="M51.2132 8.78684C45.5469 3.12047 38.0132 0 30 0C21.9868 0 14.4531 3.12047 8.78684 8.78684C3.12047 14.4531 0 21.9868 0 30C0 38.0132 3.12047 45.5469 8.78684 51.2132C14.4531 56.8795 21.9868 60 30 60C38.0132 60 45.5469 56.8795 51.2132 51.2132C56.8794 45.5468 60 38.0132 60 30C60 21.9868 56.8795 14.4531 51.2132 8.78684ZM30 58.1053C14.5027 58.1053 1.89469 45.4973 1.89469 30C1.89469 14.5027 14.5027 1.89469 30 1.89469C45.4973 1.89469 58.1053 14.5027 58.1053 30C58.1053 45.4973 45.4973 58.1053 30 58.1053Z"/>
</mask>
<path d="M51.2132 8.78684C45.5469 3.12047 38.0132 0 30 0C21.9868 0 14.4531 3.12047 8.78684 8.78684C3.12047 14.4531 0 21.9868 0 30C0 38.0132 3.12047 45.5469 8.78684 51.2132C14.4531 56.8795 21.9868 60 30 60C38.0132 60 45.5469 56.8795 51.2132 51.2132C56.8794 45.5468 60 38.0132 60 30C60 21.9868 56.8795 14.4531 51.2132 8.78684ZM30 58.1053C14.5027 58.1053 1.89469 45.4973 1.89469 30C1.89469 14.5027 14.5027 1.89469 30 1.89469C45.4973 1.89469 58.1053 14.5027 58.1053 30C58.1053 45.4973 45.4973 58.1053 30 58.1053Z" fill="white"/>
<path d="M51.2132 8.78684L49.7989 10.201L49.799 10.2011L51.2132 8.78684ZM8.78684 8.78684L10.201 10.2011L10.2011 10.201L8.78684 8.78684ZM8.78684 51.2132L10.2011 49.799L10.201 49.7989L8.78684 51.2132ZM52.6274 7.37264C46.5861 1.33117 38.5436 -2 30 -2V2C37.4827 2 44.5078 4.90976 49.7989 10.201L52.6274 7.37264ZM30 -2C21.4564 -2 13.4139 1.33117 7.37261 7.37264L10.2011 10.201C15.4922 4.90976 22.5173 2 30 2V-2ZM7.37264 7.37261C1.33117 13.4139 -2 21.4564 -2 30H2C2 22.5173 4.90976 15.4922 10.201 10.2011L7.37264 7.37261ZM-2 30C-2 38.5436 1.33117 46.5861 7.37264 52.6274L10.201 49.7989C4.90976 44.5078 2 37.4827 2 30H-2ZM7.37261 52.6274C13.4139 58.6688 21.4564 62 30 62V58C22.5173 58 15.4922 55.0902 10.2011 49.799L7.37261 52.6274ZM30 62C38.5436 62 46.5861 58.6688 52.6274 52.6274L49.7989 49.799C44.5078 55.0902 37.4827 58 30 58V62ZM52.6274 52.6274C58.6687 46.5859 62 38.5436 62 30H58C58 37.4827 55.0901 44.5077 49.7989 49.799L52.6274 52.6274ZM62 30C62 21.4564 58.6688 13.4139 52.6274 7.37261L49.799 10.2011C55.0902 15.4922 58 22.5173 58 30H62ZM30 56.1053C15.6072 56.1053 3.89469 44.3928 3.89469 30H-0.105313C-0.105313 46.6019 13.3981 60.1053 30 60.1053V56.1053ZM3.89469 30C3.89469 15.6072 15.6072 3.89469 30 3.89469V-0.105313C13.3981 -0.105313 -0.105313 13.3981 -0.105313 30H3.89469ZM30 3.89469C44.3928 3.89469 56.1053 15.6072 56.1053 30H60.1053C60.1053 13.3981 46.6019 -0.105313 30 -0.105313V3.89469ZM56.1053 30C56.1053 44.3928 44.3928 56.1053 30 56.1053V60.1053C46.6019 60.1053 60.1053 46.6019 60.1053 30H56.1053Z" fill="white" mask="url(#path-1-inside-1)"/>
<path d="M13.8095 26.5211C13.7005 26.6764 13.6453 26.8646 13.6382 27.0553M13.8095 26.5211L15.0211 20.4875C15.0082 20.6605 15.0016 20.8348 15.0016 21.0102C15.0016 23.4138 16.227 25.5923 18.2811 26.8441C18.6031 27.0404 18.8019 27.4031 18.7581 27.7776M13.8095 26.5211C13.8563 26.589 13.904 26.6564 13.9525 26.7231L14.0582 26.6462L14.7611 26.1347L14.9456 25.1518C14.6815 25.1023 14.4109 25.1081 14.1511 25.1675L13.8095 26.5211ZM13.6382 27.0553C13.6347 27.1514 13.6315 27.2478 13.6315 27.345C13.6315 29.5442 14.4977 31.571 15.9441 33.06C16.0044 33.0074 16.0677 32.9586 16.1336 32.914L16.6943 33.742L16.397 34.113L16.3969 34.113L16.3432 34.1801C16.263 34.3852 16.2606 34.6156 16.3267 34.8272M13.6382 27.0553L14.3796 27.0829L14.6303 27.0923M13.6382 27.0553L14.3795 27.0824L14.3789 27.0789L14.3968 27.083L14.5817 27.0898L14.6049 27.0907L14.6049 27.0907L14.6307 27.0916C14.6368 27.0822 14.6392 27.0759 14.6397 27.0745C14.64 27.0735 14.6396 27.0746 14.639 27.0779C14.6383 27.0813 14.6377 27.0862 14.6375 27.0925L14.6303 27.0923M16.3267 34.8272C17.0218 37.0509 18.585 38.8286 20.5789 39.8284C20.7996 39.7101 21.0173 39.5856 21.2315 39.4551L21.7515 40.3093L21.4431 41.2606C21.1563 41.1676 20.8751 41.0611 20.6003 40.9418C18.5779 41.9387 16.3366 42.4696 14.0548 42.4696C13.8142 42.4696 13.5666 42.4633 13.3189 42.4513M16.3267 34.8272L17.0138 34.6124L23.2502 39.744M16.3267 34.8272L17.0139 34.6124L17.8166 36.0264C18.7438 37.6597 20.2515 38.8826 22.0274 39.4583C22.4229 39.5865 22.8316 39.6826 23.2502 39.744M13.3189 42.4513C12.8448 42.4296 12.4195 42.7605 12.338 43.2416C12.2714 43.634 12.4741 44.0265 12.8169 44.2287C16.2995 46.2828 20.2857 47.3683 24.347 47.3683C29.194 47.3683 33.8108 45.8588 37.6603 43.0646M13.3189 42.4513L13.2755 43.4006L13.2755 43.4006L13.2733 43.4502C13.2742 43.4503 13.2751 43.4503 13.276 43.4503C13.276 43.4503 13.276 43.4503 13.276 43.4503C13.2862 43.45 13.2966 43.4462 13.3047 43.4398C13.3092 43.4362 13.3137 43.4313 13.3175 43.425C13.3215 43.4182 13.3233 43.4121 13.3239 43.4088C13.3239 43.4088 13.3239 43.4088 13.3239 43.4087C13.326 43.3966 13.3256 43.3856 13.3243 43.3772C13.3239 43.3747 13.3235 43.3725 13.323 43.3707C13.323 43.3707 13.323 43.3706 13.323 43.3706C13.3219 43.3667 13.3209 43.3643 13.3205 43.3635C13.3202 43.3629 13.3201 43.3628 13.3202 43.363C13.3203 43.3632 13.3207 43.3637 13.3214 43.3644C13.3226 43.3657 13.3239 43.3667 13.3249 43.3673L13.325 43.3673C13.3772 43.3981 13.4295 43.4287 13.482 43.4591M13.3189 42.4513L13.2727 43.4001L13.2727 43.4001L13.2703 43.4501C13.2721 43.4502 13.274 43.4503 13.2759 43.4504C13.2759 43.4504 13.276 43.4504 13.276 43.4504C13.3447 43.4537 13.4134 43.4566 13.482 43.4591M37.6603 43.0646C38.1352 42.7199 38.1875 42.0309 37.7727 41.616M37.6603 43.0646L37.0998 42.2926L37.0925 42.2999L37.0924 42.3L37.0676 42.3249C37.0709 42.3277 37.0753 42.3306 37.0805 42.333C37.0866 42.3357 37.0921 42.3369 37.0965 42.3372C37.1054 42.3378 37.1126 42.3351 37.1161 42.3326C33.5215 44.9355 29.1069 46.4735 24.347 46.4735C24.347 46.4735 24.3469 46.4735 24.3469 46.4735C21.68 46.4735 19.0467 45.9863 16.5787 45.0477L13.1835 43.7564L13.8119 43.646M37.6603 43.0646L37.0998 42.2925L37.7727 41.616M37.7727 41.616L37.7724 41.6156C37.4381 41.2814 36.9124 41.2454 36.5296 41.5227C33.0989 44.0068 28.8881 45.4735 24.3469 45.4735C22.4575 45.4735 20.5859 45.2173 18.7836 44.7189C18.2319 44.8721 17.6724 44.9986 17.1072 45.0979L16.9342 44.113L17.2897 43.1783C17.7804 43.365 18.2784 43.532 18.7824 43.679C20.9413 43.0408 22.966 41.9689 24.7165 40.5139M37.7727 41.616L37.6506 41.7381L37.0982 42.2902L37.098 42.29L37.0729 42.2554C37.0729 42.2554 37.0728 42.2554 37.0728 42.2554M24.7165 40.5139C24.9874 40.2887 25.13 39.9324 25.0618 39.5869M24.7165 40.5139L24.1309 39.8095L24.1307 39.8092L24.1032 39.7762L24.0808 39.7806C24.0849 39.8017 24.1058 39.8198 24.1303 39.8206C24.0841 39.8193 24.0379 39.8176 23.9918 39.8154M24.7165 40.5139L24.1309 39.8094L24.1307 39.8091L24.1033 39.7762L24.1318 39.7706L24.132 39.7705L25.0618 39.5869M25.0618 39.5869C24.9747 39.1454 24.5964 38.8333 24.1587 38.821C22.2521 38.767 20.5146 37.887 19.3446 36.4835C19.1414 36.5058 18.9378 36.5218 18.7342 36.5316L18.6863 35.5328L19.5559 35.0391C19.6284 35.1667 19.7057 35.291 19.7876 35.4117C19.9461 35.3843 20.1041 35.3528 20.2613 35.317M25.0618 39.5869L24.132 39.7704L24.1318 39.7704L24.1032 39.7761L24.0797 39.7478C24.0804 39.7437 24.0813 39.7411 24.0816 39.7401C24.0821 39.7389 24.0821 39.7394 24.081 39.7409C24.0799 39.7424 24.0786 39.7438 24.0773 39.7449C24.0489 39.7685 24.0204 39.792 23.9918 39.8154M20.2613 35.317C20.6576 35.2268 20.9783 34.9101 21.0299 34.5069C21.0919 34.0215 20.7798 33.5782 20.3168 33.4643C18.2166 32.9471 16.5881 31.4202 15.893 29.4734C15.7225 29.4431 15.5529 29.4083 15.3847 29.3688L15.6129 28.3952L16.5992 28.2303C16.6185 28.3459 16.6416 28.4604 16.6683 28.5735C17.058 28.6146 17.4517 28.6294 17.845 28.6174C18.3094 28.6035 18.7024 28.2531 18.7581 27.7776M20.2613 35.317L20.0596 34.4308L20.0595 34.4308L20.2613 35.317ZM18.7581 27.7776L17.8164 27.6674L17.816 27.6674L17.7819 27.6634L17.8095 27.618C17.8112 27.618 17.8128 27.6179 17.8145 27.6179C17.8127 27.6179 17.811 27.6181 17.8093 27.6183L17.7819 27.6633L17.816 27.6673L17.8164 27.6674L18.7581 27.7776ZM14.6303 27.0923L14.6057 27.0913L14.6057 27.0913L14.5816 27.0905L14.3994 27.0837L14.6303 27.0923ZM23.2502 39.744L23.8427 39.9361M23.2502 39.744C23.4943 39.7798 23.7417 39.8038 23.9918 39.8154M23.8427 39.9361C23.3237 40.3506 22.7804 40.7302 22.2166 41.0733C20.5435 42.0917 18.6906 42.7892 16.7612 43.1281L14.9678 43.443M23.8427 39.9361L24.1331 40.0302L22.2715 41.1635C20.587 42.189 18.7218 42.8911 16.7795 43.232C16.1819 43.3369 15.577 43.4076 14.9678 43.443M23.8427 39.9361C23.8926 39.8962 23.9423 39.856 23.9918 39.8154M14.9678 43.443C14.6644 43.4607 14.3599 43.4696 14.0548 43.4696C13.8663 43.4696 13.6745 43.466 13.482 43.4591M14.9678 43.443L13.8119 43.646M13.482 43.4591C13.5915 43.5224 13.7014 43.5847 13.8119 43.646M13.8119 43.646C14.716 44.148 15.6534 44.5832 16.6161 44.9493C19.0717 45.8833 21.6923 46.3683 24.3469 46.3683C24.3469 46.3683 24.347 46.3683 24.347 46.3683C28.98 46.3683 33.388 44.9275 37.0645 42.2614C37.0645 42.2614 37.0645 42.2614 37.0646 42.2614C37.0673 42.2594 37.07 42.2574 37.0728 42.2554M37.0728 42.2554C37.0707 42.2569 37.0681 42.2593 37.0654 42.2625C37.0654 42.2625 37.0654 42.2626 37.0653 42.2626C37.063 42.2653 37.0607 42.2686 37.0586 42.2724C37.0548 42.2795 37.0534 42.2854 37.0531 42.2898C37.0528 42.2941 37.0532 42.2997 37.0556 42.3064C37.0583 42.3139 37.0625 42.3199 37.0652 42.3227C37.0653 42.3228 37.0654 42.3229 37.0655 42.323L37.0908 42.2977L37.0908 42.2976L37.0981 42.2903L37.0979 42.29L37.0728 42.2554ZM43.7932 19.5951C43.9423 19.5745 44.0909 19.5517 44.2389 19.5268L43.6704 18.7092L43.7932 19.5951ZM43.7932 19.5951L43.6703 18.7092L30.0003 24.7955C29.9991 24.7446 29.9979 24.6937 29.9979 24.6425C29.9979 20.4574 33.4028 17.0525 37.588 17.0525C39.6373 17.0525 41.5581 17.8578 42.9972 19.3199C43.2054 19.5316 43.499 19.6359 43.7932 19.5951ZM16.3159 26.5716C16.7122 26.9624 17.154 27.3147 17.6372 27.6212C17.0299 27.6257 16.4242 27.5583 15.8411 27.4216L14.6358 27.1391C14.6359 27.1356 14.6361 27.1322 14.6362 27.1287L17.0514 27.5822L16.3159 26.5716ZM18.2802 33.7316C18.7733 34.0047 19.3039 34.2236 19.8651 34.3796C19.459 34.4627 19.0482 34.5142 18.6383 34.5339L17.3031 34.598C17.2978 34.5814 17.2925 34.5648 17.2872 34.5482L18.3777 33.8098L18.2802 33.7316ZM24.0808 39.7805C24.0779 39.766 24.0786 39.7549 24.0797 39.7479L24.1031 39.7761L24.0808 39.7805ZM47.9511 17.4312C48.2414 17.2934 48.5276 17.1458 48.8098 16.9886C48.7883 17.048 48.7661 17.1071 48.7432 17.1658L47.9511 17.4312ZM47.036 19.9328L46.2678 20.9809C46.0262 21.0179 45.7834 21.0494 45.5394 21.0754C46.0869 20.7538 46.5886 20.3696 47.036 19.9328ZM50.2349 20.0852L49.3085 20.3073C49.669 20.1752 50.0251 20.0298 50.376 19.8711C50.3295 19.9429 50.2824 20.0143 50.2349 20.0852Z" fill="white" stroke="white" stroke-width="2"/>
</svg>
