<svg width="60" height="60" viewBox="0 0 60 60" fill="none" xmlns="http://www.w3.org/2000/svg">
<rect width="60" height="60" fill="white"/>
<path d="M41.25 0H18.75C8.39625 0 0 8.39625 0 18.75V41.25C0 51.6037 8.39625 60 18.75 60H41.25C51.6037 60 60 51.6037 60 41.25V18.75C60 8.39625 51.6037 0 41.25 0ZM54.375 41.25C54.375 48.4875 48.4875 54.375 41.25 54.375H18.75C11.5125 54.375 5.625 48.4875 5.625 41.25V18.75C5.625 11.5125 11.5125 5.625 18.75 5.625H41.25C48.4875 5.625 54.375 11.5125 54.375 18.75V41.25Z" fill="#182488"/>
<path d="M15.5 30C15.5 21.9924 21.9924 15.5 30 15.5C38.0076 15.5 44.5 21.9924 44.5 30C44.5 38.0076 38.0076 44.5 30 44.5C21.9924 44.5 15.5 38.0076 15.5 30ZM20.125 30C20.125 35.4436 24.5564 39.875 30 39.875C35.4436 39.875 39.875 35.4436 39.875 30C39.875 24.5525 35.4435 20.125 30 20.125C24.5565 20.125 20.125 24.5525 20.125 30Z" fill="#182488" stroke="white"/>
<path d="M47.6237 13.875C47.6237 14.7027 46.9527 15.3737 46.125 15.3737C45.2972 15.3737 44.6262 14.7027 44.6262 13.875C44.6262 13.0472 45.2972 12.3762 46.125 12.3762C46.9527 12.3762 47.6237 13.0472 47.6237 13.875Z" fill="white" stroke="white"/>
</svg>
